<?xml version="1.0" encoding="UTF-8"?>
<svg version="1.1" xmlns="http://www.w3.org/2000/svg" width="100" height="100" viewBox="0 0 100 100"
  preserveAspectRatio="xMidYMid meet">
  <path d="M0 0 C33 0 66 0 100 0 C100 33 100 66 100 100 C67 100 34 100 0 100 C0 67 0 34 0 0 Z " fill="#E72366"
    transform="translate(0,0)" />
  <path
    d="M0 0 C5.94 0 11.88 0 18 0 C18 1.32 18 2.64 18 4 C16.35 4 14.7 4 13 4 C13 9.94 13 15.88 13 22 C20.26 22 27.52 22 35 22 C35 16.06 35 10.12 35 4 C33.35 4 31.7 4 30 4 C30 2.68 30 1.36 30 0 C36.27 0 42.54 0 49 0 C49 1.32 49 2.64 49 4 C47.35 4 45.7 4 44 4 C44 17.86 44 31.72 44 46 C45.65 46.33 47.3 46.66 49 47 C49 48.32 49 49.64 49 51 C42.73 51 36.46 51 30 51 C30 49.35 30 47.7 30 46 C31.65 46 33.3 46 35 46 C35 39.73 35 33.46 35 27 C27.74 27 20.48 27 13 27 C13 33.27 13 39.54 13 46 C14.65 46 16.3 46 18 46 C18 47.65 18 49.3 18 51 C11.73 51 5.46 51 -1 51 C-1 49.35 -1 47.7 -1 46 C0.65 46 2.3 46 4 46 C4 32.14 4 18.28 4 4 C2.68 4 1.36 4 0 4 C0 2.68 0 1.36 0 0 Z "
    fill="#13080C" transform="translate(26,25)" />
  <path
    d="M0 0 C7.26 0 14.52 0 22 0 C22 6.27 22 12.54 22 19 C21.01 18.67 20.02 18.34 19 18 C19.66 18 20.32 18 21 18 C21 13.05 21 8.1 21 3 C14.4 3 7.8 3 1 3 C1 8.28 1 13.56 1 19 C0.67 19 0.34 19 0 19 C0 12.73 0 6.46 0 0 Z "
    fill="#CA1F59" transform="translate(39,52)" />
  <path
    d="M0 0 C1.65 0 3.3 0 5 0 C4.51104248 0.81549316 4.02208496 1.63098633 3.51831055 2.47119141 C1.69096128 6.71825786 1.61384553 9.90820135 1.70703125 14.4609375 C1.71127609 15.25150543 1.71552094 16.04207336 1.71989441 16.8565979 C1.73658699 19.3630894 1.77422017 21.86875461 1.8125 24.375 C1.82755908 26.08201958 1.84124534 27.78905185 1.85351562 29.49609375 C1.88645944 33.66437725 1.93817507 37.83204889 2 42 C1.34 42 0.68 42 0 42 C0 28.14 0 14.28 0 0 Z "
    fill="#D41E5C" transform="translate(70,29)" />
  <path
    d="M0 0 C6.27 0 12.54 0 19 0 C18.01 1.485 18.01 1.485 17 3 C14.40152495 3.30395006 12.09360893 3.4186308 9.5 3.375 C8.81035156 3.38660156 8.12070313 3.39820312 7.41015625 3.41015625 C5.40625 3.3984375 5.40625 3.3984375 2 3 C1.34 2.01 0.68 1.02 0 0 Z "
    fill="#D01B58" transform="translate(56,76)" />
  <path
    d="M0 0 C6.27 0 12.54 0 19 0 C18.01 1.485 18.01 1.485 17 3 C13.84765625 3.3984375 13.84765625 3.3984375 10.0625 3.375 C8.81597656 3.38273437 7.56945313 3.39046875 6.28515625 3.3984375 C3 3 3 3 0 0 Z "
    fill="#D11E5A" transform="translate(25,76)" />
</svg>